<svg xmlns="http://www.w3.org/2000/svg" xmlns:svg="http://www.w3.org/2000/svg" version="1.1" viewBox="531.25 281.25 937.5 937.5">
 <g class="layer">
  <title>Layer 1</title>
  <g id="svg_6" transform="matrix(0.75, 0, 0, 0.75, 250, 281.25)">
   <svg data-background-color="#424b5400" height="1250" id="svg_43" preserveAspectRatio="xMidYMid meet" viewBox="0 0 512 320" width="2000" xmlns="http://www.w3.org/2000/svg" xmlns:xlink="http://www.w3.org/1999/xlink">
    <g id="svg_1" transform="matrix(1,0,0,1,0,0)">
     <g id="svg_11">
      <svg height="320" id="svg_44" viewBox="0 0 512 320" width="512">
       <g id="svg_12">
        <svg id="svg_45"/>
       </g>
       <g id="svg_17">
        <svg height="320" id="svg_46" viewBox="0 0 512 320" width="512">
         <g id="svg_47">
          <path d="m96,160c0,-88.37 71.63,-160 160,-160c88.37,0 160,71.63 160,160c0,88.37 -71.63,160 -160,160c-88.37,0 -160,-71.63 -160,-160zm160,148.98c82.28,0 148.98,-66.7 148.98,-148.98c0,-82.28 -66.7,-148.98 -148.98,-148.98c-82.28,0 -148.98,66.7 -148.98,148.98c0,82.28 66.7,148.98 148.98,148.98z" data-fill-palette-color="tertiary" fill="#919591" fill-rule="nonzero" id="svg_48" stroke-dashoffset="0" stroke-miterlimit="10"/>
         </g>
         <g id="svg_22" transform="matrix(1,0,0,1,154.90478144184763,80)">
          <svg height="160" id="svg_49" viewBox="0 0 202.19043711630474 160" width="202.19">
           <g id="svg_27">
            <svg height="160" id="svg_50" viewBox="0 0 255.99999999999997 202.58129209364552" width="202.19">
             <g id="svg_31" transform="matrix(1,0,0,1,0,125.20336567224084)">
              <svg height="77.38" id="svg_51" viewBox="0 0 255.99999999999997 77.3779264214047" width="256">
               <g id="svg_28">
                <svg height="77.38" id="svg_32" viewBox="0 0 255.99999999999997 77.3779264214047" width="256">
                 <g id="svg_35">
                  <svg height="77.38" id="svg_52" viewBox="0 0 255.99999999999997 77.3779264214047" width="256">
                   <g id="svg_37" transform="matrix(1,0,0,1,0,0)">
                    <svg data-palette-color="#ffffff" height="77.38" id="svg_53" viewBox="1.6 -35.8 119.60000000000001 36.15" width="256">
                     <path class="wordmark-text-0" d="m1.6,-17.7q0,-5.2 2.18,-9.28q2.17,-4.07 6.17,-6.35q4,-2.27 9.2,-2.27l0,0q6.6,0 11.1,3.52q4.5,3.53 5.8,9.58l0,0l-10.55,0q-0.95,-2 -2.62,-3.05q-1.68,-1.05 -3.88,-1.05l0,0q-3.4,0 -5.42,2.42q-2.03,2.43 -2.03,6.48l0,0q0,4.1 2.03,6.52q2.02,2.43 5.42,2.43l0,0q2.2,0 3.88,-1.05q1.67,-1.05 2.62,-3.05l0,0l10.55,0q-1.3,6.05 -5.8,9.57q-4.5,3.53 -11.1,3.53l0,0q-5.2,0 -9.2,-2.27q-4,-2.28 -6.17,-6.36q-2.18,-4.07 -2.18,-9.32l0,0zm56,18.05q-4.95,0 -9.1,-2.33q-4.15,-2.32 -6.58,-6.45q-2.42,-4.12 -2.42,-9.32l0,0q0,-5.2 2.42,-9.33q2.43,-4.12 6.58,-6.42q4.15,-2.3 9.1,-2.3l0,0q5,0 9.12,2.3q4.13,2.3 6.53,6.42q2.4,4.13 2.4,9.33l0,0q0,5.2 -2.4,9.32q-2.4,4.13 -6.55,6.45q-4.15,2.33 -9.1,2.33l0,0zm0,-9.1q3.75,0 5.92,-2.45q2.18,-2.45 2.18,-6.55l0,0q0,-4.2 -2.18,-6.63q-2.17,-2.42 -5.92,-2.42l0,0q-3.8,0 -5.95,2.42q-2.15,2.43 -2.15,6.63l0,0q0,4.15 2.15,6.57q2.15,2.43 5.95,2.43l0,0zm51.8,-26.5l11.8,0l0,35.25l-9.8,0l0,-19.45l-6.65,19.45l-8.2,0l-6.71,-19.6l0,19.6l-9.79,0l0,-35.25l11.85,0l8.85,22.9l8.65,-22.9z" data-fill-palette-color="primary" fill="#ffffff" id="svg_36" transform="matrix(1,0,0,1,0,0)"/>
                    </svg>
                   </g>
                  </svg>
                 </g>
                </svg>
               </g>
              </svg>
             </g>
             <g id="svg_39" transform="matrix(1,0,0,1,75.30935071699938,0)">
              <svg height="106.94" id="svg_54" viewBox="0 0 105.38129856600122 106.9362943143813" width="105.38">
               <g id="svg_41">
                <svg class="icon-icon-0" data-fill-palette-color="accent" enable-background="new 0 0 24 24" height="106.94" id="svg_40" version="1.1" viewBox="0.35662612586836073 0.18400000000000016 23.28737387413164 23.631" width="105.38" x="0" xml:space="preserve" xmlns="http://www.w3.org/2000/svg" xmlns:xlink="http://www.w3.org/1999/xlink" y="0">
                 <g data-fill-palette-color="accent" fill="#ffffff" id="svg_55">
                  <g data-fill-palette-color="accent" fill="#ffffff" id="svg_56">
                   <g data-fill-palette-color="accent" fill="#ffffff" id="svg_57">
                    <path d="m20.34,23.82l-16.68,0c-1.82,0 -3.3,-1.49 -3.3,-3.31s1.48,-3.31 3.3,-3.31l16.67,0c1.83,0 3.31,1.48 3.31,3.31s-1.48,3.31 -3.3,3.31zm-16.68,-5.32c-1.1,0 -2,0.9 -2,2.01s0.9,2 2,2l16.68,0c1.1,0 2,-0.9 2,-2s-0.9,-2.01 -2.01,-2.01l-16.67,0z" data-fill-palette-color="accent" fill="#ffffff" id="svg_58"/>
                    <path d="m1.01,21.01c-0.04,0 -0.07,0 -0.11,-0.01c-0.35,-0.06 -0.59,-0.39 -0.54,-0.75l2.81,-17.15c0.27,-1.64 1.71,-2.92 3.3,-2.92l11.06,0c1.58,0 3.03,1.28 3.3,2.92l2.8,17.15c0.06,0.36 -0.18,0.69 -0.53,0.75c-0.35,0.05 -0.69,-0.18 -0.75,-0.54l-2.8,-17.15c-0.17,-1.01 -1.07,-1.83 -2.02,-1.83l-11.06,0c-0.95,0 -1.85,0.82 -2.02,1.83l-2.8,17.15c-0.05,0.32 -0.33,0.55 -0.64,0.55z" data-fill-palette-color="accent" fill="#ffffff" id="svg_59"/>
                   </g>
                   <path d="m3.97,22.11c-0.89,0 -1.6,-0.72 -1.6,-1.6s0.72,-1.6 1.6,-1.6c0.88,0 1.59,0.72 1.59,1.6s-0.71,1.6 -1.59,1.6zm0,-1.9c-0.17,0 -0.3,0.13 -0.3,0.3s0.13,0.29 0.3,0.29c0.16,0 0.29,-0.13 0.29,-0.29s-0.13,-0.3 -0.29,-0.3z" data-fill-palette-color="accent" fill="#ffffff" id="svg_60"/>
                  </g>
                  <g data-fill-palette-color="accent" fill="#ffffff" id="svg_61">
                   <path d="m12,9.9c-1.5,0 -2.72,-1.22 -2.72,-2.72c0,-1.5 1.22,-2.73 2.72,-2.73s2.72,1.22 2.72,2.73c0,0.35 -0.29,0.65 -0.65,0.65s-0.65,-0.3 -0.65,-0.65c0,-0.79 -0.64,-1.43 -1.42,-1.43s-1.42,0.64 -1.42,1.43c0,0.78 0.64,1.42 1.42,1.42c0.36,0 0.65,0.29 0.65,0.65s-0.29,0.65 -0.65,0.65z" data-fill-palette-color="accent" fill="#ffffff" id="svg_62"/>
                   <path d="m12,14.04c-1.5,0 -2.72,-1.22 -2.72,-2.72c0,-0.36 0.29,-0.65 0.65,-0.65s0.65,0.29 0.65,0.65c0,0.79 0.64,1.42 1.42,1.42s1.42,-0.64 1.42,-1.42c0,-0.78 -0.64,-1.42 -1.42,-1.42c-0.36,0 -0.65,-0.29 -0.65,-0.65s0.29,-0.65 0.65,-0.65c1.5,0 2.72,1.22 2.72,2.72c0,1.5 -1.22,2.72 -2.72,2.72z" data-fill-palette-color="accent" fill="#ffffff" id="svg_63"/>
                   <path d="m12,5.75c-0.36,0 -0.65,-0.29 -0.65,-0.65l0,-1.6c0,-0.36 0.29,-0.65 0.65,-0.65s0.65,0.29 0.65,0.65l0,1.6c0,0.36 -0.29,0.65 -0.65,0.65z" data-fill-palette-color="accent" fill="#ffffff" id="svg_64"/>
                   <path d="m12,15.66c-0.36,0 -0.65,-0.29 -0.65,-0.65l0,-1.6c0,-0.36 0.29,-0.65 0.65,-0.65s0.65,0.29 0.65,0.65l0,1.6c0,0.36 -0.29,0.65 -0.65,0.65z" data-fill-palette-color="accent" fill="#ffffff" id="svg_65"/>
                  </g>
                 </g>
                </svg>
               </g>
              </svg>
             </g>
             <g id="svg_66"/>
            </svg>
           </g>
          </svg>
         </g>
        </svg>
       </g>

      </svg>
     </g>
     <rect fill="none" height="320" id="svg_67" width="512"/>
    </g>
   </svg>
  </g>
 </g>
</svg>